<svg viewBox="0 0 330 200" xmlns="http://www.w3.org/2000/svg"><g><g><g><g><g><line x1="70" y1="178" x2="65" y2="178" style="visibility: inherit;" fill="rgb(0, 0, 0)" stroke="rgb(204, 204, 204)" stroke-width="1px"></line><line x1="70" y1="161.8181818181818" x2="65" y2="161.8181818181818" style="visibility: inherit;" fill="rgb(0, 0, 0)" stroke="rgb(204, 204, 204)" stroke-width="1px"></line><line x1="70" y1="145.6363636363636" x2="65" y2="145.6363636363636" style="visibility: inherit;" fill="rgb(0, 0, 0)" stroke="rgb(204, 204, 204)" stroke-width="1px"></line><line x1="70" y1="129.4545454545454" x2="65" y2="129.4545454545454" style="visibility: inherit;" fill="rgb(0, 0, 0)" stroke="rgb(204, 204, 204)" stroke-width="1px"></line><line x1="70" y1="113.27272727272721" x2="65" y2="113.27272727272721" style="visibility: inherit;" fill="rgb(0, 0, 0)" stroke="rgb(204, 204, 204)" stroke-width="1px"></line><line x1="70" y1="97.09090909090901" x2="65" y2="97.09090909090901" style="visibility: inherit;" fill="rgb(0, 0, 0)" stroke="rgb(204, 204, 204)" stroke-width="1px"></line><line x1="70" y1="80.90909090909099" x2="65" y2="80.90909090909099" style="visibility: inherit;" fill="rgb(0, 0, 0)" stroke="rgb(204, 204, 204)" stroke-width="1px"></line><line x1="70" y1="64.72727272727279" x2="65" y2="64.72727272727279" style="visibility: inherit;" fill="rgb(0, 0, 0)" stroke="rgb(204, 204, 204)" stroke-width="1px"></line><line x1="70" y1="48.54545454545459" x2="65" y2="48.54545454545459" style="visibility: inherit;" fill="rgb(0, 0, 0)" stroke="rgb(204, 204, 204)" stroke-width="1px"></line><line x1="70" y1="32.3636363636364" x2="65" y2="32.3636363636364" style="visibility: inherit;" fill="rgb(0, 0, 0)" stroke="rgb(204, 204, 204)" stroke-width="1px"></line><line x1="70" y1="16.181818181818215" x2="65" y2="16.181818181818215" style="visibility: inherit;" fill="rgb(0, 0, 0)" stroke="rgb(204, 204, 204)" stroke-width="1px"></line><line x1="70" y1="0" x2="65" y2="0" style="visibility: inherit;" fill="rgb(0, 0, 0)" stroke="rgb(204, 204, 204)" stroke-width="1px"></line></g><g transform="translate(60, 0)"><text x="0" y="178" dx="0em" dy="0.3em" style="text-anchor: end; visibility: hidden; font-family: &quot;Helvetica Neue&quot;, sans-serif; font-size: 12px; font-weight: 200;" fill="rgb(50, 49, 63)" stroke="none" stroke-width="1px">0.38</text><text x="0" y="161.8181818181818" dx="0em" dy="0.3em" style="text-anchor: end; visibility: inherit; font-family: &quot;Helvetica Neue&quot;, sans-serif; font-size: 12px; font-weight: 200;" fill="rgb(50, 49, 63)" stroke="none" stroke-width="1px">0.385</text><text x="0" y="145.6363636363636" dx="0em" dy="0.3em" style="text-anchor: end; visibility: hidden; font-family: &quot;Helvetica Neue&quot;, sans-serif; font-size: 12px; font-weight: 200;" fill="rgb(50, 49, 63)" stroke="none" stroke-width="1px">0.39</text><text x="0" y="129.4545454545454" dx="0em" dy="0.3em" style="text-anchor: end; visibility: inherit; font-family: &quot;Helvetica Neue&quot;, sans-serif; font-size: 12px; font-weight: 200;" fill="rgb(50, 49, 63)" stroke="none" stroke-width="1px">0.395</text><text x="0" y="113.27272727272721" dx="0em" dy="0.3em" style="text-anchor: end; visibility: hidden; font-family: &quot;Helvetica Neue&quot;, sans-serif; font-size: 12px; font-weight: 200;" fill="rgb(50, 49, 63)" stroke="none" stroke-width="1px">0.4</text><text x="0" y="97.09090909090901" dx="0em" dy="0.3em" style="text-anchor: end; visibility: inherit; font-family: &quot;Helvetica Neue&quot;, sans-serif; font-size: 12px; font-weight: 200;" fill="rgb(50, 49, 63)" stroke="none" stroke-width="1px">0.405</text><text x="0" y="80.90909090909099" dx="0em" dy="0.3em" style="text-anchor: end; visibility: hidden; font-family: &quot;Helvetica Neue&quot;, sans-serif; font-size: 12px; font-weight: 200;" fill="rgb(50, 49, 63)" stroke="none" stroke-width="1px">0.41</text><text x="0" y="64.72727272727279" dx="0em" dy="0.3em" style="text-anchor: end; visibility: inherit; font-family: &quot;Helvetica Neue&quot;, sans-serif; font-size: 12px; font-weight: 200;" fill="rgb(50, 49, 63)" stroke="none" stroke-width="1px">0.415</text><text x="0" y="48.54545454545459" dx="0em" dy="0.3em" style="text-anchor: end; visibility: hidden; font-family: &quot;Helvetica Neue&quot;, sans-serif; font-size: 12px; font-weight: 200;" fill="rgb(50, 49, 63)" stroke="none" stroke-width="1px">0.42</text><text x="0" y="32.3636363636364" dx="0em" dy="0.3em" style="text-anchor: end; visibility: inherit; font-family: &quot;Helvetica Neue&quot;, sans-serif; font-size: 12px; font-weight: 200;" fill="rgb(50, 49, 63)" stroke="none" stroke-width="1px">0.425</text><text x="0" y="16.181818181818215" dx="0em" dy="0.3em" style="text-anchor: end; visibility: hidden; font-family: &quot;Helvetica Neue&quot;, sans-serif; font-size: 12px; font-weight: 200;" fill="rgb(50, 49, 63)" stroke="none" stroke-width="1px">0.43</text><text x="0" y="0" dx="0em" dy="0.3em" style="text-anchor: end; visibility: hidden; font-family: &quot;Helvetica Neue&quot;, sans-serif; font-size: 12px; font-weight: 200;" fill="rgb(50, 49, 63)" stroke="none" stroke-width="1px">0.435</text></g><line x1="70" y1="0" x2="70" y2="178" fill="rgb(0, 0, 0)" stroke="rgb(204, 204, 204)" stroke-width="1px"></line></g></g><g transform="translate(70, 0)" clip-path="url(#clip_0)"><clipPath id="clip_0"><rect width="260" height="178"></rect></clipPath><g><g><g><line x1="0" y1="0" x2="0" y2="178" fill="rgb(0, 0, 0)" stroke="rgb(60, 60, 60)" stroke-width="1px" opacity="0.25"></line><line x1="21.666666666666664" y1="0" x2="21.666666666666664" y2="178" fill="rgb(0, 0, 0)" stroke="rgb(60, 60, 60)" stroke-width="1px" opacity="0.25"></line><line x1="43.33333333333333" y1="0" x2="43.33333333333333" y2="178" fill="rgb(0, 0, 0)" stroke="rgb(60, 60, 60)" stroke-width="1px" opacity="0.25"></line><line x1="65" y1="0" x2="65" y2="178" fill="rgb(0, 0, 0)" stroke="rgb(60, 60, 60)" stroke-width="1px" opacity="0.25"></line><line x1="86.66666666666666" y1="0" x2="86.66666666666666" y2="178" fill="rgb(0, 0, 0)" stroke="rgb(60, 60, 60)" stroke-width="1px" opacity="0.25"></line><line x1="108.33333333333334" y1="0" x2="108.33333333333334" y2="178" fill="rgb(0, 0, 0)" stroke="rgb(60, 60, 60)" stroke-width="1px" opacity="0.25"></line><line x1="130" y1="0" x2="130" y2="178" fill="rgb(0, 0, 0)" stroke="rgb(60, 60, 60)" stroke-width="1px" opacity="0.25"></line><line x1="151.66666666666669" y1="0" x2="151.66666666666669" y2="178" fill="rgb(0, 0, 0)" stroke="rgb(60, 60, 60)" stroke-width="1px" opacity="0.25"></line><line x1="173.33333333333331" y1="0" x2="173.33333333333331" y2="178" fill="rgb(0, 0, 0)" stroke="rgb(60, 60, 60)" stroke-width="1px" opacity="0.25"></line><line x1="195" y1="0" x2="195" y2="178" fill="rgb(0, 0, 0)" stroke="rgb(60, 60, 60)" stroke-width="1px" opacity="0.25"></line><line x1="216.66666666666669" y1="0" x2="216.66666666666669" y2="178" fill="rgb(0, 0, 0)" stroke="rgb(60, 60, 60)" stroke-width="1px" opacity="0.25"></line><line x1="238.33333333333331" y1="0" x2="238.33333333333331" y2="178" fill="rgb(0, 0, 0)" stroke="rgb(60, 60, 60)" stroke-width="1px" opacity="0.25"></line><line x1="260" y1="0" x2="260" y2="178" fill="rgb(0, 0, 0)" stroke="rgb(60, 60, 60)" stroke-width="1px" opacity="0.25"></line></g><g><line x1="0" y1="178" x2="260" y2="178" fill="rgb(0, 0, 0)" stroke="rgb(60, 60, 60)" stroke-width="1px" opacity="0.25"></line><line x1="0" y1="161.8181818181818" x2="260" y2="161.8181818181818" fill="rgb(0, 0, 0)" stroke="rgb(60, 60, 60)" stroke-width="1px" opacity="0.25"></line><line x1="0" y1="145.6363636363636" x2="260" y2="145.6363636363636" fill="rgb(0, 0, 0)" stroke="rgb(60, 60, 60)" stroke-width="1px" opacity="0.25"></line><line x1="0" y1="129.4545454545454" x2="260" y2="129.4545454545454" fill="rgb(0, 0, 0)" stroke="rgb(60, 60, 60)" stroke-width="1px" opacity="0.25"></line><line x1="0" y1="113.27272727272721" x2="260" y2="113.27272727272721" fill="rgb(0, 0, 0)" stroke="rgb(60, 60, 60)" stroke-width="1px" opacity="0.25"></line><line x1="0" y1="97.09090909090901" x2="260" y2="97.09090909090901" fill="rgb(0, 0, 0)" stroke="rgb(60, 60, 60)" stroke-width="1px" opacity="0.25"></line><line x1="0" y1="80.90909090909099" x2="260" y2="80.90909090909099" fill="rgb(0, 0, 0)" stroke="rgb(60, 60, 60)" stroke-width="1px" opacity="0.25"></line><line x1="0" y1="64.72727272727279" x2="260" y2="64.72727272727279" fill="rgb(0, 0, 0)" stroke="rgb(60, 60, 60)" stroke-width="1px" opacity="0.25"></line><line x1="0" y1="48.54545454545459" x2="260" y2="48.54545454545459" fill="rgb(0, 0, 0)" stroke="rgb(60, 60, 60)" stroke-width="1px" opacity="0.25"></line><line x1="0" y1="32.3636363636364" x2="260" y2="32.3636363636364" fill="rgb(0, 0, 0)" stroke="rgb(60, 60, 60)" stroke-width="1px" opacity="0.25"></line><line x1="0" y1="16.181818181818215" x2="260" y2="16.181818181818215" fill="rgb(0, 0, 0)" stroke="rgb(60, 60, 60)" stroke-width="1px" opacity="0.25"></line><line x1="0" y1="0" x2="260" y2="0" fill="rgb(0, 0, 0)" stroke="rgb(60, 60, 60)" stroke-width="1px" opacity="0.25"></line></g></g></g><g><g><line x1="0" y1="1407.818181818182" x2="260" y2="1407.818181818182" fill="rgb(0, 0, 0)" stroke="rgb(153, 153, 153)" stroke-width="1.5px"></line></g></g><g><g><line x1="21.666666666666664" y1="0" x2="21.666666666666664" y2="178" fill="rgb(0, 0, 0)" stroke="rgb(153, 153, 153)" stroke-width="1.5px"></line></g></g><g><g><g><g><g><path stroke="rgb(255, 112, 67)" stroke-width="2px" d="M28.166666666666668,-16.460334089828535L30.333333333333332,13.857510944878186L32.5,37.09909362033898L34.666666666666664,55.66937663005393L36.833333333333336,70.40335195998458L39,81.60398360141039L41.166666666666664,91.17120329778865L43.33333333333333,99.5874368036198L45.5,105.125800451037L47.666666666666664,109.74206617522853L49.833333333333336,114.47409889833943L52,117.56411243586547L54.16666666666667,120.23648477266651L56.333333333333336,122.22853682554809L58.5,124.1051453009305L60.666666666666664,125.52857763167344L62.833333333333336,127.49894797025593L65,128.7901548414204L67.16666666666667,129.31755682583827L69.33333333333333,129.96764003520946L71.5,130.79060007910482L73.66666666666667,131.47654343225093L75.83333333333334,132.1000696102383L78,132.97399501988338L80.16666666666667,133.45564109668538L82.33333333333333,133.4153056171874L84.5,133.90156253110027L86.66666666666666,134.6825555012549L88.83333333333333,135.36565859717882L91,135.59704719891405L93.16666666666667,135.3459862030302L95.33333333333333,135.9345512552237L97.5,136.3049357463013L99.66666666666667,136.93608074698025L101.83333333333333,137.4594830545683L104,137.3083598187825L106.16666666666667,137.3770617620554L108.33333333333334,137.34625320724956L110.5,137.97684575025355L112.66666666666667,137.77726597018608L114.83333333333333,138.48966006524498L117,138.36485580364933L119.16666666666666,138.79580167066513L121.33333333333333,139.35815174064044L123.5,138.9839837602461L125.66666666666667,139.76411817599683L127.83333333333333,139.56390808030682L130,139.61122122355613L132.16666666666666,139.6435057360648L134.33333333333334,139.6610631619037L136.5,139.48560121501322L138.66666666666666,139.60872037589195L140.83333333333331,139.55654950639132L143,139.80152166578227L145.16666666666666,139.99179223863842L147.33333333333334,140.1466955491489L149.5,140.01930452278765L151.66666666666669,139.82492943774915L153.83333333333334,140.0423340179075L156,140.35958335807675L158.16666666666666,140.77778916473716L160.33333333333334,141.52308267575543L162.5,140.7630375777822L164.66666666666666,140.64219756400894L166.83333333333334,140.5274479509697L169,140.58425474456436L171.16666666666666,141.00024680398076L173.33333333333331,140.7654257715418L175.5,141.16084014018782L177.66666666666666,140.91888085551932L179.83333333333334,141.06780413878346L182,140.83578286876264L184.16666666666669,141.23982157783598L186.33333333333334,140.99262017295885L188.5,141.27265818831464L190.66666666666666,141.2424931694641L192.83333333333334,141.1241621205228L195,140.90960559584434L197.16666666666666,141.04306449387022L199.33333333333334,141.09956717102574L201.5,141.19519751489017L203.66666666666666,141.25273004305274L205.83333333333331,141.23103782829963L208,141.06300620722251L210.16666666666666,141.18082270696075L212.33333333333334,141.46717738369244L214.5,141.39431290618415L216.66666666666669,141.58863566393748L218.83333333333334,141.46676348926042L221,142.0473860957923L223.16666666666666,142.44923217863237L225.33333333333334,141.98505042112637L227.5,142.170664312235L229.66666666666666,141.74977660719406L231.83333333333334,142.09134450282966L234,141.78636728741338L236.16666666666666,141.7081654901903" style="fill: none;" fill="none"></path></g></g></g></g><g opacity="0.2"><g><g><g><path stroke="rgb(255, 112, 67)" stroke-width="2px" d="M23.833333333333332,-8.526771848852007L26,20.038973071358413L28.166666666666668,38.10890358144587L30.333333333333332,53.44048942219128L32.5,69.25056943026455L34.666666666666664,82.2251784584739L36.833333333333336,91.88562943718651L39,98.12273966182362L41.166666666666664,105.37740954485807L43.33333333333333,112.13545244390315L45.5,113.40320639176802L47.666666666666664,116.65139185298574L49.833333333333336,121.56287743828514L52,122.19550054723567L54.16666666666667,124.24315851384944L56.333333333333336,125.21577193520287L58.5,126.91958154331556L60.666666666666664,127.66350928219882L62.833333333333336,130.45432337847623L65,130.7268943353133L67.16666666666667,130.1086424480785L69.33333333333333,130.94275201450696L71.5,132.0250303962014L73.66666666666667,132.50545358657837L75.83333333333334,133.03535621816462L78,134.28488089821556L80.16666666666667,134.17810947244817L82.33333333333333,133.35480243509465L84.5,134.63094763322312L86.66666666666666,135.85404469750145L88.83333333333333,136.39031310514972L91,135.94413007389417L93.16666666666667,134.96939472718674L95.33333333333333,136.81739880821922L97.5,136.8605124733665L99.66666666666667,137.8827982382341L101.83333333333333,138.24458651109177L104,137.08167496594515L106.16666666666667,137.48011467673564L108.33333333333334,137.30004037510267L110.5,138.9227345640009L112.66666666666667,137.47789630022916L114.83333333333333,139.55825120752507L117,138.17764941128817L119.16666666666666,139.44222047112206L121.33333333333333,140.20167684555054L123.5,138.42273178967562L125.66666666666667,140.9343197995966L127.83333333333333,139.26359293677592L130,139.68219093842941L132.16666666666666,139.69193250482732L134.33333333333334,139.68739930066198L136.5,139.22240829467773L138.66666666666666,139.7933991172097L140.83333333333331,139.47829320214012L143,140.1689799048684L145.16666666666666,140.2771980979226L147.33333333333334,140.37905051491478L149.5,139.82821798324585L151.66666666666669,139.53336681019178L153.83333333333334,140.36844088814476L156,140.83545736833054L158.16666666666666,141.40509787472814L160.33333333333334,142.64102294228294L162.5,139.6229699308222L164.66666666666666,140.46093754334885L166.83333333333334,140.35532353141093L169,140.66946493495595L171.16666666666666,141.62423489310527L173.33333333333331,140.41319422288376L175.5,141.75396169315687L177.66666666666666,140.55594192851675L179.83333333333334,141.2911890636791L182,140.48775096373126L184.16666666666669,141.8458796414462L186.33333333333334,140.6218180656433L188.5,141.69271521134812L190.66666666666666,141.1972456411882L192.83333333333334,140.94666554711083L195,140.5877708088268L197.16666666666666,141.2432528409091L199.33333333333334,141.18432118675926L201.5,141.33864303068682L203.66666666666666,141.33902883529663L205.83333333333331,141.1984995061701L208,140.81095877560705L210.16666666666666,141.35754745656794L212.33333333333334,141.89670939878985L214.5,141.285016189922L216.66666666666669,141.88011980056763L218.83333333333334,141.283955227245L221,142.91832000559026L223.16666666666666,143.0520013028925L225.33333333333334,141.28877778486773L227.5,142.44908514889806L229.66666666666666,141.1184450496327L231.83333333333334,142.60369634628296L234,141.3289014642889L236.16666666666666,141.59086279435593" style="fill: none;" fill="none"></path></g></g></g></g></g></g><g transform="translate(70, 178)" clip-path="url(#clip_1)"><clipPath id="clip_1"><rect width="260" height="22"></rect></clipPath><g><g><line x1="0" y1="0" x2="0" y2="5" style="visibility: inherit;" fill="rgb(0, 0, 0)" stroke="rgb(204, 204, 204)" stroke-width="1px"></line><line x1="21.666666666666664" y1="0" x2="21.666666666666664" y2="5" style="visibility: inherit;" fill="rgb(0, 0, 0)" stroke="rgb(204, 204, 204)" stroke-width="1px"></line><line x1="43.33333333333333" y1="0" x2="43.33333333333333" y2="5" style="visibility: inherit;" fill="rgb(0, 0, 0)" stroke="rgb(204, 204, 204)" stroke-width="1px"></line><line x1="65" y1="0" x2="65" y2="5" style="visibility: inherit;" fill="rgb(0, 0, 0)" stroke="rgb(204, 204, 204)" stroke-width="1px"></line><line x1="86.66666666666666" y1="0" x2="86.66666666666666" y2="5" style="visibility: inherit;" fill="rgb(0, 0, 0)" stroke="rgb(204, 204, 204)" stroke-width="1px"></line><line x1="108.33333333333334" y1="0" x2="108.33333333333334" y2="5" style="visibility: inherit;" fill="rgb(0, 0, 0)" stroke="rgb(204, 204, 204)" stroke-width="1px"></line><line x1="130" y1="0" x2="130" y2="5" style="visibility: inherit;" fill="rgb(0, 0, 0)" stroke="rgb(204, 204, 204)" stroke-width="1px"></line><line x1="151.66666666666669" y1="0" x2="151.66666666666669" y2="5" style="visibility: inherit;" fill="rgb(0, 0, 0)" stroke="rgb(204, 204, 204)" stroke-width="1px"></line><line x1="173.33333333333331" y1="0" x2="173.33333333333331" y2="5" style="visibility: inherit;" fill="rgb(0, 0, 0)" stroke="rgb(204, 204, 204)" stroke-width="1px"></line><line x1="195" y1="0" x2="195" y2="5" style="visibility: inherit;" fill="rgb(0, 0, 0)" stroke="rgb(204, 204, 204)" stroke-width="1px"></line><line x1="216.66666666666669" y1="0" x2="216.66666666666669" y2="5" style="visibility: inherit;" fill="rgb(0, 0, 0)" stroke="rgb(204, 204, 204)" stroke-width="1px"></line><line x1="238.33333333333331" y1="0" x2="238.33333333333331" y2="5" style="visibility: inherit;" fill="rgb(0, 0, 0)" stroke="rgb(204, 204, 204)" stroke-width="1px"></line><line x1="260" y1="0" x2="260" y2="5" style="visibility: inherit;" fill="rgb(0, 0, 0)" stroke="rgb(204, 204, 204)" stroke-width="1px"></line></g><g transform="translate(0, 8)"><text x="0" y="0" dx="0em" dy="0.95em" style="text-anchor: middle; visibility: hidden; font-family: &quot;Helvetica Neue&quot;, sans-serif; font-size: 12px; font-weight: 200;" fill="rgb(50, 49, 63)" stroke="none" stroke-width="1px">-10</text><text x="21.666666666666664" y="0" dx="0em" dy="0.95em" style="text-anchor: middle; visibility: inherit; font-family: &quot;Helvetica Neue&quot;, sans-serif; font-size: 12px; font-weight: 200;" fill="rgb(50, 49, 63)" stroke="none" stroke-width="1px">0</text><text x="43.33333333333333" y="0" dx="0em" dy="0.95em" style="text-anchor: middle; visibility: hidden; font-family: &quot;Helvetica Neue&quot;, sans-serif; font-size: 12px; font-weight: 200;" fill="rgb(50, 49, 63)" stroke="none" stroke-width="1px">10</text><text x="65" y="0" dx="0em" dy="0.95em" style="text-anchor: middle; visibility: inherit; font-family: &quot;Helvetica Neue&quot;, sans-serif; font-size: 12px; font-weight: 200;" fill="rgb(50, 49, 63)" stroke="none" stroke-width="1px">20</text><text x="86.66666666666666" y="0" dx="0em" dy="0.95em" style="text-anchor: middle; visibility: hidden; font-family: &quot;Helvetica Neue&quot;, sans-serif; font-size: 12px; font-weight: 200;" fill="rgb(50, 49, 63)" stroke="none" stroke-width="1px">30</text><text x="108.33333333333334" y="0" dx="0em" dy="0.95em" style="text-anchor: middle; visibility: inherit; font-family: &quot;Helvetica Neue&quot;, sans-serif; font-size: 12px; font-weight: 200;" fill="rgb(50, 49, 63)" stroke="none" stroke-width="1px">40</text><text x="130" y="0" dx="0em" dy="0.95em" style="text-anchor: middle; visibility: hidden; font-family: &quot;Helvetica Neue&quot;, sans-serif; font-size: 12px; font-weight: 200;" fill="rgb(50, 49, 63)" stroke="none" stroke-width="1px">50</text><text x="151.66666666666669" y="0" dx="0em" dy="0.95em" style="text-anchor: middle; visibility: inherit; font-family: &quot;Helvetica Neue&quot;, sans-serif; font-size: 12px; font-weight: 200;" fill="rgb(50, 49, 63)" stroke="none" stroke-width="1px">60</text><text x="173.33333333333331" y="0" dx="0em" dy="0.95em" style="text-anchor: middle; visibility: hidden; font-family: &quot;Helvetica Neue&quot;, sans-serif; font-size: 12px; font-weight: 200;" fill="rgb(50, 49, 63)" stroke="none" stroke-width="1px">70</text><text x="195" y="0" dx="0em" dy="0.95em" style="text-anchor: middle; visibility: inherit; font-family: &quot;Helvetica Neue&quot;, sans-serif; font-size: 12px; font-weight: 200;" fill="rgb(50, 49, 63)" stroke="none" stroke-width="1px">80</text><text x="216.66666666666669" y="0" dx="0em" dy="0.95em" style="text-anchor: middle; visibility: hidden; font-family: &quot;Helvetica Neue&quot;, sans-serif; font-size: 12px; font-weight: 200;" fill="rgb(50, 49, 63)" stroke="none" stroke-width="1px">90</text><text x="238.33333333333331" y="0" dx="0em" dy="0.95em" style="text-anchor: middle; visibility: inherit; font-family: &quot;Helvetica Neue&quot;, sans-serif; font-size: 12px; font-weight: 200;" fill="rgb(50, 49, 63)" stroke="none" stroke-width="1px">100</text><text x="260" y="0" dx="0em" dy="0.95em" style="text-anchor: middle; visibility: hidden; font-family: &quot;Helvetica Neue&quot;, sans-serif; font-size: 12px; font-weight: 200;" fill="rgb(50, 49, 63)" stroke="none" stroke-width="1px">110</text></g><line x1="0" y1="0" x2="260" y2="0" fill="rgb(0, 0, 0)" stroke="rgb(204, 204, 204)" stroke-width="1px"></line></g></g></g></g></svg>